<svg width="76" height="76" viewBox="0 0 76 76" fill="none" xmlns="http://www.w3.org/2000/svg">
<path d="M65.5812 61.0853L54.8145 50.3503C58.2883 45.9247 60.1732 40.4597 60.1662 34.8336C60.1662 29.8231 58.6804 24.9252 55.8968 20.7591C53.1131 16.5931 49.1566 13.3461 44.5275 11.4286C39.8984 9.51122 34.8048 9.00954 29.8906 9.98703C24.9764 10.9645 20.4624 13.3773 16.9195 16.9202C13.3766 20.4631 10.9638 24.9771 9.9863 29.8913C9.0088 34.8055 9.51049 39.8992 11.4279 44.5282C13.3453 49.1573 16.5924 53.1138 20.7584 55.8975C24.9245 58.6812 29.8224 60.1669 34.8329 60.1669C40.4589 60.1739 45.924 58.289 50.3495 54.8153L61.0845 65.5819C61.3789 65.8787 61.7291 66.1143 62.115 66.2751C62.5009 66.4359 62.9148 66.5186 63.3329 66.5186C63.7509 66.5186 64.1648 66.4359 64.5507 66.2751C64.9366 66.1143 65.2868 65.8787 65.5812 65.5819C65.878 65.2875 66.1136 64.9373 66.2744 64.5514C66.4351 64.1655 66.5179 63.7516 66.5179 63.3336C66.5179 62.9156 66.4351 62.5017 66.2744 62.1158C66.1136 61.7299 65.878 61.3796 65.5812 61.0853V61.0853ZM15.8329 34.8336C15.8329 31.0757 16.9472 27.4023 19.0349 24.2778C21.1227 21.1532 24.0901 18.7179 27.5619 17.2799C31.0337 15.8418 34.8539 15.4655 38.5396 16.1987C42.2252 16.9318 45.6107 18.7414 48.2679 21.3986C50.9251 24.0558 52.7347 27.4412 53.4678 31.1269C54.2009 34.8125 53.8246 38.6328 52.3866 42.1046C50.9485 45.5764 48.5132 48.5438 45.3887 50.6315C42.2642 52.7193 38.5907 53.8336 34.8329 53.8336C29.7937 53.8336 24.961 51.8318 21.3978 48.2686C17.8346 44.7054 15.8329 39.8727 15.8329 34.8336Z" fill="#666666"/>
</svg>
